<svg width="205" height="205" viewBox="-128 20 256 220" fill="none" xmlns="http://www.w3.org/2000/svg">
<g filter="url(#filter0_d_2_10725)">
<path d="M48.327 6.4736C75.286 17.4656 97.6923 37.3197 111.849 62.76C126.006 88.2002 131.066 117.706 126.197 146.41C121.327 175.114 106.817 201.3 85.0624 220.647C63.3072 239.995 35.6064 251.348 6.5305 252.833L6.32083 248.729C34.4632 247.291 61.2747 236.303 82.3313 217.576C103.388 198.85 117.432 173.505 122.145 145.723C126.858 117.941 121.96 89.3817 108.258 64.7583C94.5558 40.1348 72.8688 20.9182 46.7753 10.279L48.327 6.4736Z" fill="#FF8A2D"/>
</g>
<defs>
<filter id="filter0_d_2_10725" x="0.320801" y="0.473633" width="133.679" height="258.36" filterUnits="userSpaceOnUse" color-interpolation-filters="sRGB">
<feFlood flood-opacity="0" result="BackgroundImageFix"/>
<feColorMatrix in="SourceAlpha" type="matrix" values="0 0 0 0 0 0 0 0 0 0 0 0 0 0 0 0 0 0 127 0" result="hardAlpha"/>
<feOffset/>
<feGaussianBlur stdDeviation="3"/>
<feComposite in2="hardAlpha" operator="out"/>
<feColorMatrix type="matrix" values="0 0 0 0 0.945098 0 0 0 0 0.584314 0 0 0 0 0.294118 0 0 0 1 0"/>
<feBlend mode="normal" in2="BackgroundImageFix" result="effect1_dropShadow_2_10725"/>
<feBlend mode="normal" in="SourceGraphic" in2="effect1_dropShadow_2_10725" result="shape"/>
</filter>
</defs>
</svg>
