<svg width="128" height="128" viewBox="160 160 200 210" fill="none" xmlns="http://www.w3.org/2000/svg">
<g filter="url(#filter0_f_0_1)">
<circle cx="257" cy="257" r="57" fill="black"/>
</g>
<g filter="url(#filter1_d_0_1)">
<circle cx="260" cy="267" r="95" fill="#F3BA2F"/>
</g>
<path d="M232.505 256.409L259.5 229.414L286.508 256.421L302.215 240.714L259.5 198L216.799 240.701L232.506 256.408L232.505 256.409ZM190 267.5L205.708 251.79L221.414 267.497L205.707 283.204L190 267.5ZM232.505 278.593L259.5 305.586L286.507 278.58L302.223 294.278L302.215 294.287L259.5 337L216.799 294.299L216.777 294.277L232.507 278.591L232.505 278.593ZM297.586 267.507L313.293 251.799L329 267.506L313.293 283.213L297.586 267.507Z" fill="white"/>
<path d="M275.639 267.868H275.645L259.876 252.097L248.22 263.75L246.88 265.089L244.119 267.851L244.097 267.873L244.119 267.895L259.876 283.654L275.646 267.884L275.654 267.875L275.64 267.868" fill="white"/>
<defs>
<filter id="filter0_f_0_1" x="0" y="0" width="514" height="514" filterUnits="userSpaceOnUse" color-interpolation-filters="sRGB">
<feFlood flood-opacity="0" result="BackgroundImageFix"/>
<feBlend mode="normal" in="SourceGraphic" in2="BackgroundImageFix" result="shape"/>
<feGaussianBlur stdDeviation="100" result="effect1_foregroundBlur_0_1"/>
</filter>
<filter id="filter1_d_0_1" x="156" y="163" width="208" height="208" filterUnits="userSpaceOnUse" color-interpolation-filters="sRGB">
<feFlood flood-opacity="0" result="BackgroundImageFix"/>
<feColorMatrix in="SourceAlpha" type="matrix" values="0 0 0 0 0 0 0 0 0 0 0 0 0 0 0 0 0 0 127 0" result="hardAlpha"/>
<feOffset/>
<feGaussianBlur stdDeviation="4.5"/>
<feComposite in2="hardAlpha" operator="out"/>
<feColorMatrix type="matrix" values="0 0 0 0 0.952941 0 0 0 0 0.729412 0 0 0 0 0.184314 0 0 0 1 0"/>
<feBlend mode="normal" in2="BackgroundImageFix" result="effect1_dropShadow_0_1"/>
<feBlend mode="normal" in="SourceGraphic" in2="effect1_dropShadow_0_1" result="shape"/>
</filter>
</defs>
</svg>
