<svg width="47" height="44" viewBox="0 0 47 44" fill="none" xmlns="http://www.w3.org/2000/svg">
<g opacity="0.15">
<path d="M12.5885 13.7639C14.4863 13.7639 16.0297 12.2205 16.0297 10.3227C16.0297 8.42485 14.4863 6.88147 12.5885 6.88147C10.6907 6.88147 9.14728 8.42485 9.14728 10.3227C9.14728 12.2205 10.6904 13.7639 12.5885 13.7639ZM12.5885 8.60208C13.537 8.60208 14.3091 9.3742 14.3091 10.3227C14.3091 11.2712 13.537 12.0433 12.5885 12.0433C11.64 12.0433 10.8679 11.2712 10.8679 10.3227C10.8679 9.3742 11.6398 8.60208 12.5885 8.60208Z" fill="white"/>
<path d="M16.4596 3.12586C16.9975 3.12586 17.4336 2.68969 17.4336 2.15178C17.4336 1.61366 16.9975 1.17749 16.4596 1.17749C15.9216 1.17749 15.4855 1.61366 15.4855 2.15178C15.4853 2.68969 15.9214 3.12586 16.4596 3.12586Z" fill="white"/>
<path d="M0.974077 14.0809C0.436173 14.0809 0 14.5171 0 15.0552C0 15.5931 0.436173 16.0293 0.974077 16.0293C1.51198 16.0293 1.94815 15.5931 1.94815 15.0552C1.94815 14.5171 1.51198 14.0809 0.974077 14.0809Z" fill="white"/>
<path d="M46.1397 0H34.8011C29.1941 0 24.6321 4.56197 24.6321 10.169V20.6473H14.1539C8.54683 20.6473 3.98486 25.2092 3.98486 30.8163V42.1548C3.98486 42.6304 4.36963 43.0151 4.84517 43.0151H16.1837C21.7908 43.0151 26.3527 38.4532 26.3527 32.8461V22.3679H36.831C42.438 22.3679 47 17.8059 47 12.1989V0.860303C47 0.38477 46.6152 0 46.1397 0V0ZM24.6321 32.8461C24.6321 37.5047 20.8423 41.2945 16.1837 41.2945H5.70547V30.8163C5.70547 26.1577 9.49532 22.3679 14.1539 22.3679H24.6321V32.8461ZM45.2794 12.1989C45.2794 16.8574 41.4896 20.6473 36.831 20.6473H26.3527V10.169C26.3527 5.51045 30.1426 1.72061 34.8011 1.72061H45.2794V12.1989Z" fill="white"/>
</g>
</svg>
