<svg width="48" height="51" viewBox="0 0 48 51" fill="none" xmlns="http://www.w3.org/2000/svg">
<g opacity="0.15">
<path d="M5.51904 7.35741C7.54784 7.35741 9.19774 5.70705 9.19774 3.6787C9.19774 1.65036 7.54784 0 5.51904 0C3.49023 0 1.84033 1.65036 1.84033 3.6787C1.84033 5.70705 3.49023 7.35741 5.51904 7.35741ZM5.51904 1.83935C6.53298 1.83935 7.35839 2.6643 7.35839 3.6787C7.35839 4.69311 6.53298 5.51806 5.51904 5.51806C4.50509 5.51806 3.67968 4.69311 3.67968 3.6787C3.67968 2.6643 4.50509 1.83935 5.51904 1.83935Z" fill="white"/>
<path d="M26.674 9.41471C27.8245 9.5975 28.959 9.89708 30.0456 10.3047C30.1525 10.3447 30.2612 10.364 30.3688 10.364C30.7406 10.364 31.091 10.136 31.2301 9.76718C31.4078 9.29171 31.1673 8.76128 30.6921 8.5831C29.4896 8.13177 28.2347 7.80045 26.963 7.59789C26.4519 7.51788 25.9905 7.86069 25.9105 8.36168C25.8307 8.86337 26.173 9.33493 26.674 9.41471Z" fill="white"/>
<path d="M33.176 11.8505C34.1603 12.4667 35.088 13.1857 35.9341 13.9872C36.1119 14.1559 36.3392 14.2396 36.5664 14.2396C36.8099 14.2396 37.0531 14.1435 37.2336 13.9527C37.5831 13.5839 37.5677 13.002 37.1987 12.6527C36.2647 11.7666 35.2398 10.9722 34.1532 10.2914C33.7239 10.0238 33.1553 10.1526 32.8849 10.583C32.6157 11.0134 32.7458 11.5806 33.176 11.8505Z" fill="white"/>
<path d="M38.4357 15.3475C38.0207 15.6397 37.9211 16.2139 38.2138 16.6286C38.8838 17.5807 39.4604 18.6027 39.9265 19.6675C40.0773 20.0128 40.415 20.2188 40.7698 20.2188C40.8928 20.2188 41.0177 20.1938 41.1381 20.1411C41.6033 19.9372 41.8153 19.3952 41.6115 18.9299C41.0961 17.752 40.4583 16.6217 39.7175 15.5696C39.4255 15.1539 38.8525 15.0548 38.4357 15.3475Z" fill="white"/>
<path d="M19.5187 9.72326C19.5913 9.72326 19.6651 9.71475 19.7387 9.69682C20.8642 9.42114 22.0262 9.25767 23.1921 9.21054C23.6995 9.1903 24.0948 8.76242 24.0741 8.25499C24.0534 7.74664 23.6133 7.34245 23.1185 7.37303C21.8305 7.42476 20.5462 7.6057 19.3007 7.91058C18.8076 8.03128 18.5059 8.52883 18.6261 9.02246C18.7291 9.44207 19.1046 9.72326 19.5187 9.72326Z" fill="white"/>
<path d="M12.9147 12.8462C13.106 12.8462 13.2991 12.7868 13.4635 12.6634C14.3983 11.966 15.4042 11.3607 16.4543 10.864C16.9132 10.6472 17.1091 10.0989 16.8925 9.63948C16.6752 9.18148 16.1301 8.98306 15.6675 9.20171C14.508 9.75007 13.3961 10.4191 12.3642 11.1896C11.9566 11.4931 11.8729 12.0693 12.1766 12.4767C12.3569 12.7186 12.6344 12.8462 12.9147 12.8462Z" fill="white"/>
<path d="M6.80608 19.8374C6.32371 19.6712 5.80294 19.929 5.63763 20.409C5.22171 21.6228 4.92718 22.8859 4.76118 24.1641C4.69657 24.6678 5.05225 25.129 5.55509 25.1941C5.59555 25.1994 5.6351 25.2017 5.67465 25.2017C6.12989 25.2017 6.52604 24.8635 6.58627 24.4002C6.73526 23.2448 7.0022 22.1024 7.37835 21.0052C7.54251 20.5251 7.28661 20.0018 6.80608 19.8374Z" fill="white"/>
<path d="M7.57316 18.163C7.71962 18.2487 7.88034 18.2897 8.03829 18.2897C8.35351 18.2897 8.66068 18.1276 8.8322 17.8356C9.42056 16.8345 10.1129 15.8866 10.8897 15.0181C11.2284 14.6397 11.196 14.058 10.818 13.7196C10.4382 13.3809 9.85787 13.4129 9.51943 13.7913C8.66091 14.7505 7.89643 15.7978 7.24622 16.9042C6.98917 17.3422 7.13563 17.9057 7.57316 18.163Z" fill="white"/>
<path d="M46.9035 25.7511H43.1809C43.1307 24.6889 43.0158 23.6304 42.7937 22.5992C42.6877 22.1026 42.1963 21.7864 41.7016 21.8933C41.2049 21.9998 40.8888 22.4893 40.9957 22.9855C41.1902 23.8904 41.2916 24.8188 41.3404 25.7511H34.8274C34.3191 25.7511 33.9078 26.1629 33.9078 26.6708C33.9078 27.1787 34.3191 27.5905 34.8274 27.5905H45.9649C45.481 39.3361 35.774 48.743 23.9116 48.743C12.0491 48.743 2.34241 39.3361 1.85821 27.5905H16.6181C17.0731 31.214 20.1669 34.0282 23.9116 34.0282C27.9685 34.0282 31.269 30.7277 31.269 26.6708C31.269 22.6139 27.9685 19.3134 23.9116 19.3134C20.1669 19.3134 17.0729 22.1276 16.6181 25.7511H0.919676C0.411325 25.7511 0 26.1629 0 26.6708C0 39.8558 10.7262 50.5824 23.9116 50.5824C37.097 50.5824 47.8232 39.8558 47.8232 26.6708C47.8232 26.1629 47.4118 25.7511 46.9035 25.7511ZM23.9116 21.1528C26.9543 21.1528 29.4296 23.6281 29.4296 26.6708C29.4296 29.7136 26.9543 32.1889 23.9116 32.1889C20.8688 32.1889 18.3935 29.7136 18.3935 26.6708C18.3935 23.6281 20.8688 21.1528 23.9116 21.1528Z" fill="white"/>
<path d="M38.1655 4.25898C38.7405 4.25898 39.207 3.79271 39.207 3.21768C39.207 2.64242 38.7408 2.17615 38.1655 2.17615C37.5902 2.17615 37.124 2.64242 37.124 3.21768C37.124 3.79271 37.5905 4.25898 38.1655 4.25898Z" fill="white"/>
<path d="M45.5235 3.34217C46.0985 3.34217 46.565 2.8759 46.565 2.30087C46.565 1.72561 46.0987 1.25934 45.5235 1.25934C44.9482 1.25934 44.4819 1.72561 44.4819 2.30087C44.4819 2.8759 44.9484 3.34217 45.5235 3.34217Z" fill="white"/>
<path d="M45.4037 19.774C45.4037 20.349 45.87 20.8153 46.4453 20.8153C47.0205 20.8153 47.4868 20.349 47.4868 19.774C47.4868 19.1987 47.0205 18.7324 46.4453 18.7324C45.87 18.7324 45.4037 19.1987 45.4037 19.774Z" fill="white"/>
</g>
</svg>
