<svg width="236" height="236" viewBox="0 0 236 236" fill="none" xmlns="http://www.w3.org/2000/svg">
<g filter="url(#filter0_d_2_10763)">
<mask id="mask0_2_10763" style="mask-type:alpha" maskUnits="userSpaceOnUse" x="20" y="20" width="196" height="196">
<circle r="98" transform="matrix(-1 0 0 1 118 118)" fill="white"/>
</mask>
<g mask="url(#mask0_2_10763)">
<circle r="98" transform="matrix(-1 0 0 1 118 118)" fill="#1E0A40"/>
<g filter="url(#filter1_f_2_10763)">
<circle r="47" transform="matrix(-1 0 0 1 185 166)" fill="#2D2BEB"/>
</g>
<g filter="url(#filter2_f_2_10763)">
<circle r="43" transform="matrix(-1 0 0 1 167 36)" fill="#D719B1"/>
</g>
<g filter="url(#filter3_f_2_10763)">
<circle r="50" transform="matrix(-1 0 0 1 41 167)" fill="#10BFDE"/>
</g>
<g filter="url(#filter4_d_2_10763)">
<circle r="21.25" transform="matrix(-1 0 0 1 118 90.7499)" fill="#F3BA2F"/>
<path d="M113.75 112H122.25C143.375 112 160.5 129.125 160.5 150.25C160.5 152.597 158.597 154.5 156.25 154.5H79.7501C77.4028 154.5 75.5001 152.597 75.5001 150.25C75.5001 129.125 92.6252 112 113.75 112Z" fill="#F3BA2F"/>
</g>
</g>
</g>
<defs>
<filter id="filter0_d_2_10763" x="0" y="0" width="236" height="236" filterUnits="userSpaceOnUse" color-interpolation-filters="sRGB">
<feFlood flood-opacity="0" result="BackgroundImageFix"/>
<feColorMatrix in="SourceAlpha" type="matrix" values="0 0 0 0 0 0 0 0 0 0 0 0 0 0 0 0 0 0 127 0" result="hardAlpha"/>
<feOffset/>
<feGaussianBlur stdDeviation="10"/>
<feComposite in2="hardAlpha" operator="out"/>
<feColorMatrix type="matrix" values="0 0 0 0 0.145098 0 0 0 0 0.458823 0 0 0 0 0.929412 0 0 0 1 0"/>
<feBlend mode="normal" in2="BackgroundImageFix" result="effect1_dropShadow_2_10763"/>
<feBlend mode="normal" in="SourceGraphic" in2="effect1_dropShadow_2_10763" result="shape"/>
</filter>
<filter id="filter1_f_2_10763" x="38" y="19" width="294" height="294" filterUnits="userSpaceOnUse" color-interpolation-filters="sRGB">
<feFlood flood-opacity="0" result="BackgroundImageFix"/>
<feBlend mode="normal" in="SourceGraphic" in2="BackgroundImageFix" result="shape"/>
<feGaussianBlur stdDeviation="50" result="effect1_foregroundBlur_2_10763"/>
</filter>
<filter id="filter2_f_2_10763" x="24" y="-107" width="286" height="286" filterUnits="userSpaceOnUse" color-interpolation-filters="sRGB">
<feFlood flood-opacity="0" result="BackgroundImageFix"/>
<feBlend mode="normal" in="SourceGraphic" in2="BackgroundImageFix" result="shape"/>
<feGaussianBlur stdDeviation="50" result="effect1_foregroundBlur_2_10763"/>
</filter>
<filter id="filter3_f_2_10763" x="-109" y="17" width="300" height="300" filterUnits="userSpaceOnUse" color-interpolation-filters="sRGB">
<feFlood flood-opacity="0" result="BackgroundImageFix"/>
<feBlend mode="normal" in="SourceGraphic" in2="BackgroundImageFix" result="shape"/>
<feGaussianBlur stdDeviation="50" result="effect1_foregroundBlur_2_10763"/>
</filter>
<filter id="filter4_d_2_10763" x="59" y="53" width="118" height="118" filterUnits="userSpaceOnUse" color-interpolation-filters="sRGB">
<feFlood flood-opacity="0" result="BackgroundImageFix"/>
<feColorMatrix in="SourceAlpha" type="matrix" values="0 0 0 0 0 0 0 0 0 0 0 0 0 0 0 0 0 0 127 0" result="hardAlpha"/>
<feOffset/>
<feGaussianBlur stdDeviation="4"/>
<feComposite in2="hardAlpha" operator="out"/>
<feColorMatrix type="matrix" values="0 0 0 0 0.952941 0 0 0 0 0.729412 0 0 0 0 0.184314 0 0 0 0.75 0"/>
<feBlend mode="normal" in2="BackgroundImageFix" result="effect1_dropShadow_2_10763"/>
<feBlend mode="normal" in="SourceGraphic" in2="effect1_dropShadow_2_10763" result="shape"/>
</filter>
</defs>
</svg>
