<svg width="50" height="50" viewBox="0 0 50 50" fill="none" xmlns="http://www.w3.org/2000/svg">
<path opacity="0.15" fill-rule="evenodd" clip-rule="evenodd" d="M44.9995 42.5002C44.9995 43.8802 43.8795 45.0002 42.4995 45.0002C41.1195 45.0002 39.9995 43.8802 39.9995 42.5002V7.50023C39.9995 6.12023 41.1195 5.00023 42.4995 5.00023C43.8795 5.00023 44.9995 6.12023 44.9995 7.50023V42.5002ZM45.0005 0H40.0005C37.238 0 35.0005 2.2375 35.0005 5V45C35.0005 47.7625 37.238 50 40.0005 50H45.0005C47.763 50 50.0005 47.7625 50.0005 45V5C50.0005 2.2375 47.763 0 45.0005 0ZM27.5005 42.4995C27.5005 43.8795 26.3805 44.9995 25.0005 44.9995C23.6205 44.9995 22.5005 43.8795 22.5005 42.4995V17.4995C22.5005 16.1195 23.6205 14.9995 25.0005 14.9995C26.3805 14.9995 27.5005 16.1195 27.5005 17.4995V42.4995ZM27.5002 10.0005H22.5002C19.7377 10.0005 17.5002 12.238 17.5002 15.0005V45.0005C17.5002 47.763 19.7377 50.0005 22.5002 50.0005H27.5002C30.2627 50.0005 32.5002 47.763 32.5002 45.0005V15.0005C32.5002 12.238 30.2627 10.0005 27.5002 10.0005ZM10.0002 42.5002C10.0002 43.8802 8.88023 45.0002 7.50023 45.0002C6.12023 45.0002 5.00023 43.8802 5.00023 42.5002V32.5002C5.00023 31.1202 6.12023 30.0002 7.50023 30.0002C8.88023 30.0002 10.0002 31.1202 10.0002 32.5002V42.5002ZM10 25H5C2.2375 25 0 27.2375 0 30V45C0 47.7625 2.2375 50 5 50H10C12.7625 50 15 47.7625 15 45V30C15 27.2375 12.7625 25 10 25Z" fill="white"/>
</svg>
