<svg width="34" height="46" viewBox="0 0 34 46" fill="none" xmlns="http://www.w3.org/2000/svg">
<g opacity="0.15">
<path d="M16.5862 17.4158C16.0337 16.8633 15.1355 16.8605 14.5802 17.413L9.91655 22.0795L8.08621 20.2463C7.53371 19.6938 6.63555 19.6938 6.08305 20.2463C5.53055 20.7988 5.53055 21.697 6.08305 22.2495L8.91638 25.0828C9.19121 25.3605 9.55388 25.4993 9.91655 25.4993C10.2792 25.4993 10.6419 25.3605 10.9195 25.0856L16.5862 19.419C17.1387 18.8665 17.1387 17.9683 16.5862 17.4158Z" fill="white"/>
<path d="M16.5862 28.7501C16.0337 28.1976 15.1355 28.1948 14.5802 28.7473L9.91655 33.4138L8.08621 31.5835C7.53371 31.031 6.63555 31.031 6.08305 31.5835C5.53055 32.136 5.53055 33.0341 6.08305 33.5866L8.91638 36.42C9.19121 36.6948 9.55388 36.8336 9.91655 36.8336C10.2792 36.8336 10.6419 36.6948 10.9195 36.42L16.5862 30.7533C17.1387 30.2008 17.1387 29.3026 16.5862 28.7501Z" fill="white"/>
<path d="M26.9162 19.8329H21.2495C20.4675 19.8329 19.8328 20.4676 19.8328 21.2496C19.8328 22.0316 20.4675 22.6662 21.2495 22.6662H26.9162C27.6982 22.6662 28.3328 22.0316 28.3328 21.2496C28.3328 20.4676 27.6982 19.8329 26.9162 19.8329Z" fill="white"/>
<path d="M26.9162 31.1671H21.2495C20.4675 31.1671 19.8328 31.8018 19.8328 32.5838C19.8328 33.3658 20.4675 34.0004 21.2495 34.0004H26.9162C27.6982 34.0004 28.3328 33.3658 28.3328 32.5838C28.3328 31.8018 27.6982 31.1671 26.9162 31.1671Z" fill="white"/>
<path d="M31.1667 5.66667H25.5V4.25C25.5 3.468 24.8653 2.83333 24.0833 2.83333H21.0092C20.4227 1.18433 18.8473 0 17 0C15.1527 0 13.5773 1.18433 12.9908 2.83333H9.91667C9.13467 2.83333 8.5 3.468 8.5 4.25V5.66667H2.83333C1.27217 5.66667 0 6.93883 0 8.5V42.5C0 44.0612 1.27217 45.3333 2.83333 45.3333H31.1667C32.7278 45.3333 34 44.0612 34 42.5V8.5C34 6.93883 32.7278 5.66667 31.1667 5.66667ZM11.3333 5.66667H14.1667C14.9487 5.66667 15.5833 5.032 15.5833 4.25C15.5833 3.468 16.218 2.83333 17 2.83333C17.782 2.83333 18.4167 3.468 18.4167 4.25C18.4167 5.032 19.0513 5.66667 19.8333 5.66667H22.6667V8.5H11.3333V5.66667ZM31.1667 42.5H2.83333V8.5H8.5V9.91667C8.5 10.6987 9.13467 11.3333 9.91667 11.3333H24.0833C24.8653 11.3333 25.5 10.6987 25.5 9.91667V8.5H31.1667V42.5Z" fill="white"/>
</g>
</svg>
