<svg width="62" height="49" viewBox="0 0 62 49" fill="none" xmlns="http://www.w3.org/2000/svg">
<g opacity="0.15">
<path fill-rule="evenodd" clip-rule="evenodd" d="M21.6269 4.28437C25.6866 4.28437 28.9887 7.62642 28.9887 11.7349C28.9887 15.8559 25.6866 19.198 21.6269 19.198C17.5671 19.198 14.2637 15.8559 14.2637 11.7349C14.2637 7.62642 17.5671 4.28437 21.6269 4.28437ZM21.6269 22.9672C27.7376 22.9672 32.7087 17.929 32.7087 11.7349C32.7087 5.55334 27.7376 0.515137 21.6269 0.515137C15.5161 0.515137 10.5437 5.55334 10.5437 11.7349C10.5437 17.929 15.5161 22.9672 21.6269 22.9672ZM44.2668 4.90001C47.1944 4.90001 49.5752 7.31232 49.5752 10.2774C49.5752 13.2426 47.1944 15.6549 44.2668 15.6549C41.3404 15.6549 38.9596 13.2426 38.9596 10.2774C38.9596 7.31232 41.3404 4.90001 44.2668 4.90001ZM44.2668 19.4241C49.2454 19.4241 53.2952 15.3282 53.2952 10.2774C53.2952 5.23924 49.2454 1.13078 44.2668 1.13078C39.2894 1.13078 35.2396 5.23924 35.2396 10.2774C35.2396 15.3282 39.2894 19.4241 44.2668 19.4241ZM57.505 35.858H42.9127V35.7826C42.9127 30.669 39.4469 25.2539 33.02 25.2539C32.9295 25.2539 32.8278 25.2539 32.7323 25.2539C33.3771 24.6382 34.2104 24.1985 35.2334 24.1985C35.9389 24.1985 38.1139 24.1859 40.7762 24.1733C44.9637 24.1482 50.3589 24.1231 53.1229 24.1231C56.5899 24.1231 57.505 27.2892 57.505 28.9603V35.858ZM39.1927 45.1931H4.05978V36.4485C4.05978 34.2498 4.91414 32.0762 6.3451 30.6564C7.0767 29.9277 8.31794 29.0231 10.0019 29.111C10.9343 29.0859 13.8855 29.0985 17.4592 29.0733C22.7987 29.0482 29.5356 29.0231 33.02 29.0231C37.262 29.0231 39.1927 32.5285 39.1927 35.7826V45.1931ZM53.1229 20.3539C50.3552 20.3539 44.9513 20.379 40.7576 20.4041C38.104 20.4167 35.9365 20.4292 35.2693 20.4292C35.2235 20.4292 35.1776 20.4292 35.1329 20.4292C32.214 20.4292 29.6125 22.2887 28.2509 25.2539C24.893 25.2664 20.8791 25.2915 17.4406 25.3041C13.8942 25.3292 10.9641 25.3418 10.0515 25.3418C10.0477 25.3418 10.044 25.3418 10.0403 25.3418C7.7153 25.2664 5.49446 26.2213 3.7411 27.9677C1.61078 30.0785 0.339783 33.2572 0.339783 36.4485V47.0777C0.339783 48.1205 1.17182 48.9623 2.19978 48.9623H41.0527C42.0807 48.9623 42.9127 48.1205 42.9127 47.0777V39.6272H59.365C60.393 39.6272 61.225 38.7854 61.225 37.7426V28.9603C61.225 24.789 58.3854 20.3539 53.1229 20.3539Z" fill="white"/>
</g>
</svg>
