<svg width="44" height="44" viewBox="0 0 44 44" fill="none" xmlns="http://www.w3.org/2000/svg">
<path opacity="0.15" d="M43.4324 33.5595C43.2168 34.3145 42.5285 34.807 41.7804 34.807C41.6239 34.807 41.4655 34.7855 41.3076 34.7405C40.3947 34.48 39.8658 33.5286 40.1264 32.6159C40.9662 29.6752 40.5847 26.4307 39.0791 23.7146C38.6547 22.9492 38.2058 22.1952 37.7303 21.3969C36.5696 19.4482 35.3759 17.4418 34.4643 15.1244H9.78512C8.6445 17.568 7.56097 19.368 6.50933 21.1153C5.94188 22.0579 5.40599 22.9478 4.88286 23.9056C3.08917 27.188 2.95688 31.1217 4.52828 34.4283C6.51538 38.6087 9.70352 40.5628 14.5477 40.5631C14.63 40.5631 14.7119 40.5625 14.7948 40.5615C15.6937 40.549 16.9468 40.3594 17.9538 40.2073C20.1457 39.8756 22.4272 39.8951 24.7357 40.2647C26.063 40.4772 27.3688 40.5746 28.726 40.5611C31.7076 40.5329 34.1947 39.8182 36.119 38.4365C36.8899 37.8829 37.964 38.0589 38.5181 38.8299C39.0717 39.601 38.8955 40.6749 38.1242 41.2285C35.6136 43.0312 32.4624 43.9631 28.7589 43.9983C27.2049 44.0128 25.7117 43.902 24.192 43.6586C22.2345 43.3454 20.3085 43.3276 18.4678 43.6059C17.3578 43.7737 15.9754 43.9832 14.8412 43.9983C14.7461 43.9997 14.6504 44 14.5561 44C8.39435 44.0003 3.97728 41.2775 1.42307 35.9034C-0.620093 31.6051 -0.454893 26.5039 1.86528 22.2573C2.423 21.2368 3.00254 20.2737 3.56328 19.3425C4.3426 18.0484 5.13972 16.7237 5.958 15.1244H4.29358C3.34402 15.1244 2.57443 14.355 2.57443 13.4057C2.57443 12.4563 3.34402 11.6869 4.29358 11.6869H11.1698C14.2808 11.6869 17.1677 9.14436 18.1797 5.90355C16.9129 5.54939 15.9831 4.38755 15.9831 3.00784C15.9831 1.34648 17.3302 0 18.9916 0C20.653 0 22.0001 1.34648 22.0001 3.00784C22.0001 3.08941 21.9958 3.17031 21.9894 3.25054C21.9961 3.31198 22.0001 3.37408 22.0001 3.43753C22.0001 6.30101 20.8703 9.22056 18.9 11.4469C18.8278 11.5285 18.7549 11.6084 18.6814 11.6873H25.3189C25.2454 11.6084 25.1722 11.5285 25.1003 11.4469C23.13 9.22056 22.0001 6.30101 22.0001 3.43753C22.0001 3.37408 22.0042 3.31198 22.0105 3.25054C22.0042 3.17031 22.0001 3.08941 22.0001 3.00784C22.0001 1.34648 23.3469 0 25.0083 0C26.67 0 28.0168 1.34648 28.0168 3.00784C28.0168 4.38755 27.0874 5.54939 25.8205 5.90355C26.8325 9.14469 29.7195 11.6873 32.8301 11.6873H39.7067C40.6559 11.6873 41.4255 12.4567 41.4255 13.4057C41.4255 14.355 40.6559 15.1244 39.7067 15.1244H38.2044C38.9401 16.7096 39.8222 18.1907 40.6844 19.6382C41.1525 20.4237 41.6364 21.2361 42.0866 22.0485C44.0297 25.5545 44.5203 29.75 43.4324 33.5595ZM10.1874 24.676C9.35432 24.2211 8.30974 24.5276 7.85477 25.3605C6.5869 27.6808 6.49792 30.4708 7.61603 32.8233C9.00277 35.7409 11.4942 37.2794 14.8274 37.2794C14.8764 37.2794 14.9258 37.279 14.9751 37.278C15.9244 37.2656 16.6835 36.4855 16.6708 35.5364C16.6583 34.5951 15.8911 33.8408 14.9523 33.8408C14.9446 33.8408 14.9365 33.8412 14.9288 33.8412C12.8507 33.8704 11.5543 33.1003 10.7216 31.348C10.0745 29.987 10.131 28.3646 10.872 27.0084C11.3273 26.1752 11.0208 25.1312 10.1874 24.676Z" fill="white"/>
</svg>
